<svg height="512" viewBox="0 0 128 128" width="512" xmlns="http://www.w3.org/2000/svg"><g id="Circle_Grid" data-name="Circle Grid"><circle cx="64" cy="64" fill="#ef5261" r="64"/></g><g id="icon"><path d="m53.36 43.21-4.58-12.75a3.92 3.92 0 0 1 3.12-5.2 11.17 11.17 0 0 1 7.63 1.31s2.81 1.63 4.45-.26c3.63-4.2 10.25-4 14.24-1.67a3.92 3.92 0 0 1 1.66 4.83l-5.41 13.74" fill="#f6b863"/><path d="m74.46 105h-20.92c-12.44 0-22.87-11.39-21.76-23.77 2.38-23.27 15.1-30.34 23-37.95h18.42c7.92 7.61 23.1 21.74 23 38.91 1.13 12.38-9.3 22.81-21.74 22.81z" fill="#f6b863"/><path d="m79 45.19a2.32 2.32 0 0 1 -2.32 2.31h-25.34a2.32 2.32 0 0 1 0-4.63h25.32a2.33 2.33 0 0 1 2.34 2.32z" fill="#575b6d"/><path d="m79 40.56a2.33 2.33 0 0 1 -2.32 2.31h-25.34a2.32 2.32 0 1 1 0-4.63h25.32a2.32 2.32 0 0 1 2.34 2.32z" fill="#575b6d"/><circle cx="63.08" cy="80.01" fill="#eaa14e" r="15.64"/><path d="m76.66 42.87a2.3 2.3 0 0 1 1.75.8h-28.82a2.3 2.3 0 0 1 1.75-.8 2.3 2.3 0 0 1 -1.75-.8h28.82a2.3 2.3 0 0 1 -1.75.8z" fill="#414451"/><path d="m62.24 90.17v-2.5a7.22 7.22 0 0 1 -3.78-1.09l.59-1.66a6.55 6.55 0 0 0 3.56 1.08c1.76 0 3-1 3-2.43s-1-2.2-2.8-2.94c-2.52-1-4.08-2.13-4.08-4.28a4.07 4.07 0 0 1 3.73-4v-2.49h1.54v2.4a6.58 6.58 0 0 1 3.21.86l-.61 1.64a6 6 0 0 0 -3.12-.85c-1.91 0-2.62 1.14-2.62 2.13 0 1.29.91 1.93 3.06 2.82 2.55 1 3.84 2.33 3.84 4.53a4.3 4.3 0 0 1 -3.91 4.2v2.58z" fill="#eeefee"/></g></svg>